<svg width="46" height="46" viewBox="0 0 46 46" fill="none" xmlns="http://www.w3.org/2000/svg">
<path d="M22.9997 24.9168C24.0582 24.9168 24.9163 24.0587 24.9163 23.0002C24.9163 21.9416 24.0582 21.0835 22.9997 21.0835C21.9411 21.0835 21.083 21.9416 21.083 23.0002C21.083 24.0587 21.9411 24.9168 22.9997 24.9168Z" fill="#353535" stroke="#353535" stroke-width="3" stroke-linecap="round" stroke-linejoin="round"/>
<path d="M36.4167 24.9168C37.4752 24.9168 38.3333 24.0587 38.3333 23.0002C38.3333 21.9416 37.4752 21.0835 36.4167 21.0835C35.3581 21.0835 34.5 21.9416 34.5 23.0002C34.5 24.0587 35.3581 24.9168 36.4167 24.9168Z" fill="#353535" stroke="#353535" stroke-width="3" stroke-linecap="round" stroke-linejoin="round"/>
<path d="M9.58366 24.9168C10.6422 24.9168 11.5003 24.0587 11.5003 23.0002C11.5003 21.9416 10.6422 21.0835 9.58366 21.0835C8.52511 21.0835 7.66699 21.9416 7.66699 23.0002C7.66699 24.0587 8.52511 24.9168 9.58366 24.9168Z" fill="#353535" stroke="#353535" stroke-width="3" stroke-linecap="round" stroke-linejoin="round"/>
</svg>
