<svg width="18" height="18" viewBox="0 0 18 18" fill="none" xmlns="http://www.w3.org/2000/svg">
<path d="M9 0.5C9.55313 0.5 10 0.946875 10 1.5V2.07187C13.0656 2.50938 15.4906 4.93437 15.9281 8H16.5C17.0531 8 17.5 8.44688 17.5 9C17.5 9.55313 17.0531 10 16.5 10H15.9281C15.4906 13.0656 13.0656 15.4906 10 15.9281V16.5C10 17.0531 9.55313 17.5 9 17.5C8.44688 17.5 8 17.0531 8 16.5V15.9281C4.93437 15.4906 2.50938 13.0656 2.07188 10H1.5C0.946875 10 0.5 9.55313 0.5 9C0.5 8.44688 0.946875 8 1.5 8H2.07188C2.50938 4.93437 4.93437 2.50938 8 2.07187V1.5C8 0.946875 8.44688 0.5 9 0.5ZM4 9C4 10.3261 4.52678 11.5979 5.46447 12.5355C6.40215 13.4732 7.67392 14 9 14C10.3261 14 11.5979 13.4732 12.5355 12.5355C13.4732 11.5979 14 10.3261 14 9C14 7.67392 13.4732 6.40215 12.5355 5.46447C11.5979 4.52678 10.3261 4 9 4C7.67392 4 6.40215 4.52678 5.46447 5.46447C4.52678 6.40215 4 7.67392 4 9ZM9 6C9.79565 6 10.5587 6.31607 11.1213 6.87868C11.6839 7.44129 12 8.20435 12 9C12 9.79565 11.6839 10.5587 11.1213 11.1213C10.5587 11.6839 9.79565 12 9 12C8.20435 12 7.44129 11.6839 6.87868 11.1213C6.31607 10.5587 6 9.79565 6 9C6 8.20435 6.31607 7.44129 6.87868 6.87868C7.44129 6.31607 8.20435 6 9 6Z" fill="#1E196A"/>
</svg>
