<svg width="30" height="30" viewBox="0 0 30 30" fill="none" xmlns="http://www.w3.org/2000/svg">
<path d="M17.415 15.3647C17.406 15.8398 17.2561 16.3016 16.9843 16.6915C16.7124 17.0813 16.331 17.3817 15.8883 17.5546C15.4456 17.7274 14.9615 17.7649 14.4975 17.6623C14.0334 17.5597 13.6103 17.3217 13.2817 16.9783C12.9531 16.635 12.7338 16.2018 12.6517 15.7337C12.5695 15.2656 12.6282 14.7836 12.8203 14.3489C13.0124 13.9142 13.3292 13.5463 13.7306 13.2919C14.132 13.0374 14.6 12.9079 15.0751 12.9197C15.7064 12.9431 16.3038 13.2114 16.7407 13.6679C17.1775 14.1243 17.4194 14.7329 17.415 15.3647Z" fill="#F26522"/>
<path d="M19.1445 7.84961H11.0071C10.2019 7.84961 9.4297 8.16947 8.86034 8.73882C8.29099 9.30818 7.97113 10.0804 7.97113 10.8856V19.206C7.97113 19.6047 8.04966 19.9994 8.20223 20.3678C8.3548 20.7361 8.57843 21.0708 8.86034 21.3527C9.14226 21.6346 9.47694 21.8583 9.84528 22.0108C10.2136 22.1634 10.6084 22.2419 11.0071 22.2419H19.1445C19.5432 22.2419 19.938 22.1634 20.3063 22.0108C20.6746 21.8583 21.0093 21.6346 21.2912 21.3527C21.5732 21.0708 21.7968 20.7361 21.9494 20.3678C22.1019 19.9994 22.1805 19.6047 22.1805 19.206V10.9006C22.182 10.5007 22.1047 10.1045 21.9529 9.73462C21.801 9.36473 21.5777 9.02843 21.2957 8.745C21.0136 8.46158 20.6784 8.23659 20.3093 8.08294C19.9402 7.92929 19.5443 7.85 19.1445 7.84961ZM15.075 19.434C14.2695 19.4521 13.4768 19.2299 12.7981 18.7956C12.1195 18.3613 11.5856 17.7346 11.2646 16.9955C10.9437 16.2565 10.8502 15.4385 10.9962 14.6461C11.1421 13.8537 11.5209 13.1227 12.0841 12.5465C12.6473 11.9703 13.3694 11.575 14.1583 11.411C14.9472 11.247 15.767 11.3217 16.5132 11.6257C17.2594 11.9297 17.8981 12.4492 18.3478 13.1178C18.7975 13.7864 19.0378 14.5738 19.038 15.3795C19.0445 15.9061 18.9472 16.4288 18.7514 16.9177C18.5557 17.4066 18.2655 17.8521 17.8974 18.2287C17.5293 18.6053 17.0906 18.9056 16.6063 19.1124C16.122 19.3192 15.6016 19.4285 15.075 19.434ZM19.479 11.3266C19.38 11.3266 19.282 11.3069 19.1908 11.2685C19.0995 11.2302 19.0168 11.1741 18.9475 11.1034C18.8782 11.0327 18.8238 10.9489 18.7873 10.8569C18.7508 10.7649 18.733 10.6665 18.735 10.5676C18.735 10.3663 18.815 10.1732 18.9573 10.0309C19.0996 9.88855 19.2927 9.80858 19.494 9.80858C19.6953 9.80858 19.8883 9.88855 20.0307 10.0309C20.173 10.1732 20.253 10.3663 20.253 10.5676C20.256 10.6747 20.2357 10.7813 20.1937 10.8799C20.1517 10.9785 20.0889 11.0669 20.0095 11.1389C19.9302 11.211 19.8362 11.2651 19.734 11.2975C19.6318 11.3299 19.5239 11.3398 19.4175 11.3266H19.479Z" fill="#F26522"/>
<path d="M15.075 0.000187759C11.0968 -0.0197032 7.27364 1.54155 4.44656 4.3405C1.61949 7.13944 0.0200787 10.9468 0.000187759 14.925C-0.0197032 18.9032 1.54155 22.7264 4.3405 25.5534C7.13944 28.3805 10.9468 29.9799 14.925 29.9998C16.8948 30.0097 18.8473 29.6314 20.6709 28.8867C22.4945 28.142 24.1536 27.0454 25.5534 25.6595C26.9533 24.2736 28.0664 22.6256 28.8293 20.8095C29.5922 18.9934 29.99 17.0448 29.9998 15.075C30.0097 13.1052 29.6314 11.1527 28.8867 9.32911C28.142 7.50548 27.0454 5.84639 25.6595 4.44656C24.2736 3.04674 22.6256 1.93359 20.8095 1.17068C18.9934 0.407771 17.0448 0.0100368 15.075 0.000187759ZM24.1844 19.0529C24.1886 19.7259 24.0591 20.393 23.8036 21.0155C23.548 21.6381 23.1714 22.2037 22.6957 22.6796C22.2199 23.1555 21.6544 23.5323 21.0319 23.788C20.4094 24.0437 19.7424 24.1734 19.0695 24.1694H11.0835C10.4106 24.1736 9.74353 24.0441 9.12099 23.7886C8.49844 23.533 7.93282 23.1564 7.45689 22.6807C6.98097 22.2049 6.60423 21.6394 6.3485 21.0169C6.09276 20.3944 5.96313 19.7274 5.96711 19.0544V11.067C5.96293 10.3941 6.09237 9.72703 6.34792 9.10449C6.60347 8.48194 6.98005 7.91632 7.45583 7.4404C7.93161 6.96448 8.49713 6.58773 9.1196 6.332C9.74207 6.07626 10.4091 5.94663 11.082 5.95061H19.0695C19.7423 5.94663 20.4092 6.07622 21.0316 6.33186C21.6539 6.5875 22.2194 6.96411 22.6951 7.43987C23.1709 7.91563 23.5475 8.48108 23.8031 9.10345C24.0588 9.72582 24.1884 10.3927 24.1844 11.0655V19.0529Z" fill="#F26522"/>
</svg>
