<svg width="21" height="17" viewBox="0 0 21 17" fill="none" xmlns="http://www.w3.org/2000/svg">
<path d="M11.6897 0.919694C11.971 0.650964 12.3524 0.5 12.7502 0.5C13.1479 0.5 13.5294 0.650964 13.8107 0.919694L20.5608 7.37021C20.842 7.63902 21 8.00356 21 8.38365C21 8.76375 20.842 9.12829 20.5608 9.3971L13.8107 15.8476C13.5278 16.1087 13.1489 16.2532 12.7556 16.2499C12.3623 16.2467 11.9861 16.0959 11.708 15.8302C11.4298 15.5644 11.2721 15.2049 11.2687 14.829C11.2652 14.4532 11.4164 14.0911 11.6897 13.8207L15.7502 9.8171H1.50002C1.10219 9.8171 0.720655 9.66608 0.439347 9.39725C0.158038 9.12843 0 8.76383 0 8.38365C0 8.00348 0.158038 7.63888 0.439347 7.37005C0.720655 7.10123 1.10219 6.95021 1.50002 6.95021H15.7502L11.6897 2.94659C11.4085 2.67778 11.2505 2.31324 11.2505 1.93314C11.2505 1.55304 11.4085 1.1885 11.6897 0.919694Z" fill="white"/>
</svg>
